<svg width="168" height="32" viewBox="0 0 168 32" fill="none" xmlns="http://www.w3.org/2000/svg">
<path d="M100 16C100 19.1645 99.0616 22.2579 97.3035 24.8891C95.5454 27.5203 93.0466 29.5711 90.1229 30.7821C87.1993 31.9931 83.9823 32.3099 80.8786 31.6926C77.7749 31.0752 74.9239 29.5513 72.6863 27.3137C70.4487 25.0761 68.9248 22.2251 68.3074 19.1214C67.6901 16.0177 68.0069 12.8007 69.2179 9.87707C70.4289 6.95345 72.4797 4.45459 75.1109 2.69649C77.7421 0.938385 80.8355 0 84 0C88.2435 0 92.3131 1.68571 95.3137 4.68629C98.3143 7.68688 100 11.7565 100 16ZM16 0C12.8355 0 9.74207 0.938385 7.11089 2.69649C4.4797 4.45459 2.42894 6.95345 1.21793 9.87707C0.0069325 12.8007 -0.309921 16.0177 0.307443 19.1214C0.924806 22.2251 2.44866 25.0761 4.6863 27.3137C6.92394 29.5513 9.77487 31.0752 12.8786 31.6926C15.9823 32.3099 19.1993 31.9931 22.1229 30.7821C25.0466 29.5711 27.5454 27.5203 29.3035 24.8891C31.0616 22.2579 32 19.1645 32 16C32 11.7565 30.3143 7.68688 27.3137 4.68629C24.3131 1.68571 20.2435 0 16 0ZM152 0C148.836 0 145.742 0.938385 143.111 2.69649C140.48 4.45459 138.429 6.95345 137.218 9.87707C136.007 12.8007 135.69 16.0177 136.307 19.1214C136.925 22.2251 138.449 25.0761 140.686 27.3137C142.924 29.5513 145.775 31.0752 148.879 31.6926C151.982 32.3099 155.199 31.9931 158.123 30.7821C161.047 29.5711 163.545 27.5203 165.304 24.8891C167.062 22.2579 168 19.1645 168 16C168 11.7565 166.314 7.68688 163.314 4.68629C160.313 1.68571 156.243 0 152 0Z" fill="currentColor"/>
</svg>
