<svg width="14" height="19" viewBox="0 0 14 19" fill="none" xmlns="http://www.w3.org/2000/svg">
<path fill-rule="evenodd" clip-rule="evenodd" d="M7 17.04L7.631 16.329C8.347 15.509 8.991 14.731 9.564 13.991L10.037 13.367C12.012 10.706 13 8.594 13 7.033C13 3.701 10.314 1 7 1C3.686 1 1 3.701 1 7.033C1 8.594 1.988 10.706 3.963 13.367L4.436 13.991C5.25344 15.0384 6.10867 16.0547 7 17.04Z" stroke="currentColor" stroke-width="2" stroke-linecap="round" stroke-linejoin="round"/>
<path d="M7 9.5C8.38071 9.5 9.5 8.38071 9.5 7C9.5 5.61929 8.38071 4.5 7 4.5C5.61929 4.5 4.5 5.61929 4.5 7C4.5 8.38071 5.61929 9.5 7 9.5Z" stroke="currentColor" stroke-width="2" stroke-linecap="round" stroke-linejoin="round"/>
</svg>
