<svg width="20" height="20" viewBox="0 0 20 20" fill="none" xmlns="http://www.w3.org/2000/svg">
<path d="M16.3889 0C17.3466 0 18.2651 0.380455 18.9423 1.05767C19.6195 1.73488 20 2.65338 20 3.61111V6.94444C20 7.16546 19.9122 7.37742 19.7559 7.5337C19.5996 7.68998 19.3877 7.77778 19.1667 7.77778C18.9457 7.77778 18.7337 7.68998 18.5774 7.5337C18.4211 7.37742 18.3333 7.16546 18.3333 6.94444V3.61111C18.3333 3.09541 18.1285 2.60084 17.7638 2.23618C17.3992 1.87153 16.9046 1.66667 16.3889 1.66667H13.0556C12.8345 1.66667 12.6226 1.57887 12.4663 1.42259C12.31 1.26631 12.2222 1.05435 12.2222 0.833333C12.2222 0.61232 12.31 0.400358 12.4663 0.244078C12.6226 0.0877973 12.8345 0 13.0556 0H16.3889ZM3.61111 0C2.65338 0 1.73488 0.380455 1.05767 1.05767C0.380455 1.73488 0 2.65338 0 3.61111V6.94444C0 7.16546 0.0877973 7.37742 0.244078 7.5337C0.400358 7.68998 0.61232 7.77778 0.833333 7.77778C1.05435 7.77778 1.26631 7.68998 1.42259 7.5337C1.57887 7.37742 1.66667 7.16546 1.66667 6.94444V3.61111C1.66667 2.53778 2.53778 1.66667 3.61111 1.66667H6.94444C7.16546 1.66667 7.37742 1.57887 7.5337 1.42259C7.68998 1.26631 7.77778 1.05435 7.77778 0.833333C7.77778 0.61232 7.68998 0.400358 7.5337 0.244078C7.37742 0.0877973 7.16546 0 6.94444 0H3.61111ZM16.3889 20C17.3466 20 18.2651 19.6195 18.9423 18.9423C19.6195 18.2651 20 17.3466 20 16.3889V13.0556C20 12.8345 19.9122 12.6226 19.7559 12.4663C19.5996 12.31 19.3877 12.2222 19.1667 12.2222C18.9457 12.2222 18.7337 12.31 18.5774 12.4663C18.4211 12.6226 18.3333 12.8345 18.3333 13.0556V16.3889C18.3333 16.9046 18.1285 17.3992 17.7638 17.7638C17.3992 18.1285 16.9046 18.3333 16.3889 18.3333H13.0556C12.8345 18.3333 12.6226 18.4211 12.4663 18.5774C12.31 18.7337 12.2222 18.9457 12.2222 19.1667C12.2222 19.3877 12.31 19.5996 12.4663 19.7559C12.6226 19.9122 12.8345 20 13.0556 20H16.3889ZM0 16.3889C0 17.3466 0.380455 18.2651 1.05767 18.9423C1.73488 19.6195 2.65338 20 3.61111 20H6.94444C7.16546 20 7.37742 19.9122 7.5337 19.7559C7.68998 19.5996 7.77778 19.3877 7.77778 19.1667C7.77778 18.9457 7.68998 18.7337 7.5337 18.5774C7.37742 18.4211 7.16546 18.3333 6.94444 18.3333H3.61111C3.09541 18.3333 2.60084 18.1285 2.23618 17.7638C1.87153 17.3992 1.66667 16.9046 1.66667 16.3889V13.0556C1.66667 12.8345 1.57887 12.6226 1.42259 12.4663C1.26631 12.31 1.05435 12.2222 0.833333 12.2222C0.61232 12.2222 0.400358 12.31 0.244078 12.4663C0.0877973 12.6226 0 12.8345 0 13.0556V16.3889ZM10 13.3333C10.8841 13.3333 11.7319 12.9821 12.357 12.357C12.9821 11.7319 13.3333 10.8841 13.3333 10C13.3333 9.11595 12.9821 8.2681 12.357 7.64298C11.7319 7.01786 10.8841 6.66667 10 6.66667C9.11595 6.66667 8.2681 7.01786 7.64298 7.64298C7.01786 8.2681 6.66667 9.11595 6.66667 10C6.66667 10.8841 7.01786 11.7319 7.64298 12.357C8.2681 12.9821 9.11595 13.3333 10 13.3333ZM10 11.6667C9.55797 11.6667 9.13405 11.4911 8.82149 11.1785C8.50893 10.866 8.33333 10.442 8.33333 10C8.33333 9.55797 8.50893 9.13405 8.82149 8.82149C9.13405 8.50893 9.55797 8.33333 10 8.33333C10.442 8.33333 10.866 8.50893 11.1785 8.82149C11.4911 9.13405 11.6667 9.55797 11.6667 10C11.6667 10.442 11.4911 10.866 11.1785 11.1785C10.866 11.4911 10.442 11.6667 10 11.6667ZM5 6.11111C5.29469 6.11111 5.5773 5.99405 5.78567 5.78567C5.99405 5.5773 6.11111 5.29469 6.11111 5C6.11111 4.70532 5.99405 4.4227 5.78567 4.21433C5.5773 4.00595 5.29469 3.88889 5 3.88889C4.70532 3.88889 4.4227 4.00595 4.21433 4.21433C4.00595 4.4227 3.88889 4.70532 3.88889 5C3.88889 5.29469 4.00595 5.5773 4.21433 5.78567C4.4227 5.99405 4.70532 6.11111 5 6.11111Z" fill="currentColor"/>
</svg>
