<svg width="25" height="25" viewBox="0 0 25 25" fill="none" xmlns="http://www.w3.org/2000/svg">
<path d="M6.3382 19.7541L1.33728 24.755C1.19348 24.8988 1.01682 24.9759 0.807296 24.9861C0.597769 24.9964 0.410838 24.9194 0.246503 24.755C0.0821677 24.5907 0 24.4089 0 24.2096C0 24.0104 0.0821677 23.8286 0.246503 23.6643L5.24743 18.6633H0.945954C0.727183 18.6633 0.54436 18.5894 0.397486 18.4415C0.249584 18.2936 0.175633 18.1108 0.175633 17.893C0.175633 17.6753 0.249584 17.4925 0.397486 17.3445C0.545387 17.1966 0.72821 17.1227 0.945954 17.1227H6.63401C6.98733 17.1227 7.28313 17.2418 7.52141 17.4801C7.7597 17.7184 7.87884 18.0142 7.87884 18.3675V24.0556C7.87884 24.2744 7.80489 24.4572 7.65699 24.6041C7.50909 24.7509 7.32627 24.8249 7.10852 24.8259C6.89078 24.8259 6.70796 24.752 6.56005 24.6041C6.41215 24.4572 6.3382 24.2744 6.3382 24.0556V19.7541ZM18.6633 19.7541V24.0556C18.6633 24.2744 18.5894 24.4572 18.4415 24.6041C18.2936 24.752 18.1102 24.8259 17.8915 24.8259C17.6737 24.8259 17.4909 24.752 17.343 24.6041C17.1961 24.4572 17.1227 24.2744 17.1227 24.0556V18.3675C17.1227 18.0142 17.2418 17.7184 17.4801 17.4801C17.7184 17.2418 18.0142 17.1227 18.3675 17.1227H24.0556C24.2744 17.1227 24.4572 17.1966 24.6041 17.3445C24.7509 17.4925 24.8249 17.6753 24.8259 17.893C24.8259 18.1108 24.752 18.2936 24.6041 18.4415C24.4572 18.5884 24.2744 18.6618 24.0556 18.6618H19.7541L24.755 23.6627C24.8988 23.8065 24.9759 23.9832 24.9861 24.1927C24.9964 24.4022 24.9194 24.5892 24.755 24.7535C24.5907 24.9178 24.4089 25 24.2096 25C24.0104 25 23.8286 24.9178 23.6643 24.7535L18.6633 19.7541ZM5.24743 6.3382L0.246503 1.33728C0.10271 1.19348 0.0256774 1.01682 0.0154064 0.807296C0.00513546 0.597769 0.0821677 0.410838 0.246503 0.246503C0.410838 0.0821677 0.592634 0 0.79189 0C0.991147 0 1.17294 0.0821677 1.33728 0.246503L6.3382 5.24743V0.945954C6.3382 0.727183 6.41215 0.54436 6.56005 0.397486C6.70796 0.249584 6.89078 0.175633 7.10852 0.175633C7.32627 0.175633 7.50909 0.249584 7.65699 0.397486C7.80489 0.545387 7.87884 0.72821 7.87884 0.945954V6.63401C7.87884 6.98733 7.7597 7.28313 7.52141 7.52141C7.28313 7.7597 6.98733 7.87884 6.63401 7.87884H0.945954C0.727183 7.87884 0.54436 7.80489 0.397486 7.65699C0.250611 7.50909 0.17666 7.32627 0.175633 7.10852C0.175633 6.89078 0.249584 6.70796 0.397486 6.56005C0.545387 6.41215 0.72821 6.3382 0.945954 6.3382H5.24743ZM19.7541 6.3382H24.0556C24.2744 6.3382 24.4572 6.41215 24.6041 6.56005C24.752 6.70796 24.8259 6.89129 24.8259 7.11006C24.8259 7.32781 24.752 7.51063 24.6041 7.65853C24.4572 7.80541 24.2744 7.87884 24.0556 7.87884H18.3675C18.0142 7.87884 17.7184 7.7597 17.4801 7.52141C17.2418 7.28313 17.1227 6.98733 17.1227 6.63401V0.945954C17.1227 0.727183 17.1966 0.54436 17.3445 0.397486C17.4925 0.250611 17.6753 0.17666 17.893 0.175633C18.1108 0.175633 18.2936 0.249584 18.4415 0.397486C18.5884 0.545387 18.6618 0.72821 18.6618 0.945954V5.24743L23.6627 0.246503C23.8065 0.10271 23.9832 0.0256774 24.1927 0.0154064C24.4022 0.00513546 24.5892 0.0821677 24.7535 0.246503C24.9178 0.410838 25 0.592634 25 0.79189C25 0.991147 24.9178 1.17294 24.7535 1.33728L19.7541 6.3382Z" fill="currentColor"/>
</svg>
