<svg width="25" height="25" viewBox="0 0 25 25" fill="none" xmlns="http://www.w3.org/2000/svg">
<path d="M2.66875 23.4375H7.03125C7.25313 23.4375 7.43854 23.5125 7.5875 23.6625C7.73646 23.8125 7.81146 23.9979 7.8125 24.2188C7.8125 24.4396 7.7375 24.625 7.5875 24.775C7.43854 24.925 7.25313 25 7.03125 25H1.2625C0.904167 25 0.604166 24.8792 0.3625 24.6375C0.120833 24.3958 0 24.0958 0 23.7375V17.9688C0 17.7469 0.0750001 17.5615 0.225 17.4125C0.375 17.2625 0.560937 17.1875 0.782812 17.1875C1.00365 17.1875 1.18906 17.2625 1.33906 17.4125C1.48802 17.5625 1.5625 17.7479 1.5625 17.9688V22.3312L6.63438 17.2594C6.78021 17.1135 6.95938 17.0354 7.17188 17.025C7.38438 17.0146 7.57396 17.0927 7.74063 17.2594C7.90729 17.426 7.99063 17.6104 7.99063 17.8125C7.99063 18.0146 7.90729 18.199 7.74063 18.3656L2.66875 23.4375ZM22.3312 23.4375L17.2594 18.3656C17.1135 18.2198 17.0354 18.0406 17.025 17.8281C17.0146 17.6156 17.0927 17.426 17.2594 17.2594C17.426 17.0927 17.6104 17.0094 17.8125 17.0094C18.0146 17.0094 18.199 17.0927 18.3656 17.2594L23.4375 22.3312V17.9688C23.4375 17.7469 23.5125 17.5615 23.6625 17.4125C23.8125 17.2635 23.9979 17.1885 24.2188 17.1875C24.4396 17.1875 24.625 17.2625 24.775 17.4125C24.924 17.5625 24.9984 17.7479 24.9984 17.9688V23.7375C24.9984 24.0958 24.8776 24.3958 24.6359 24.6375C24.3943 24.8792 24.0943 25 23.7359 25H17.9688C17.7469 25 17.5615 24.925 17.4125 24.775C17.2625 24.625 17.1875 24.4396 17.1875 24.2188C17.1875 23.9979 17.2625 23.8125 17.4125 23.6625C17.5625 23.5135 17.7479 23.4391 17.9688 23.4391L22.3312 23.4375ZM1.5625 2.66875V7.03125C1.5625 7.25313 1.4875 7.43854 1.3375 7.5875C1.1875 7.73646 1.00156 7.81146 0.779688 7.8125C0.558854 7.8125 0.373438 7.7375 0.223438 7.5875C0.0744794 7.43854 0 7.25313 0 7.03125V1.2625C0 0.904167 0.120833 0.604166 0.3625 0.3625C0.604166 0.120833 0.904167 0 1.2625 0H7.03125C7.25313 0 7.43854 0.0750001 7.5875 0.225C7.7375 0.375 7.8125 0.560937 7.8125 0.782812C7.8125 1.00365 7.7375 1.18906 7.5875 1.33906C7.43854 1.48802 7.25313 1.5625 7.03125 1.5625H2.66875L7.74063 6.63438C7.88646 6.78021 7.96458 6.95938 7.975 7.17188C7.98542 7.38438 7.90729 7.57396 7.74063 7.74063C7.57396 7.90729 7.38958 7.99063 7.1875 7.99063C6.98542 7.99063 6.80104 7.90729 6.63438 7.74063L1.5625 2.66875ZM23.4375 2.66875L18.3656 7.74063C18.2198 7.88646 18.0406 7.96458 17.8281 7.975C17.6156 7.98542 17.426 7.90729 17.2594 7.74063C17.0927 7.57396 17.0094 7.38958 17.0094 7.1875C17.0094 6.98542 17.0927 6.80104 17.2594 6.63438L22.3312 1.5625H17.9688C17.7469 1.5625 17.5615 1.4875 17.4125 1.3375C17.2635 1.1875 17.1885 1.00156 17.1875 0.779688C17.1875 0.558854 17.2625 0.373438 17.4125 0.223438C17.5625 0.0744794 17.7479 0 17.9688 0H23.7375C24.0958 0 24.3958 0.120833 24.6375 0.3625C24.8792 0.604166 25 0.904167 25 1.2625V7.03125C25 7.25313 24.925 7.43854 24.775 7.5875C24.625 7.7375 24.4396 7.8125 24.2188 7.8125C23.9979 7.8125 23.8125 7.7375 23.6625 7.5875C23.5125 7.43854 23.4375 7.25313 23.4375 7.03125V2.66875Z" fill="currentColor"/>
</svg>
